<?xml version="1.0" encoding="UTF-8" standalone="no"?>
<svg viewBox="0 0 599.8573 285.87256" xmlns="http://www.w3.org/2000/svg" xmlns:xlink="http://www.w3.org/1999/xlink">
<defs>
<linearGradient id="linearGradient10290">
<stop offset="0" stop-color="#685d4c"/>
<stop offset="1" stop-color="#685d4c" stop-opacity="0"/>
</linearGradient>
<linearGradient gradientUnits="userSpaceOnUse" id="linearGradient10718" x1="433.14835" x2="460.0809" y1="406.51675" y2="283.6972">
<stop offset="0" stop-color="#dcbd90"/>
<stop offset="1" stop-color="#96725d"/>
</linearGradient>
<radialGradient cx="258.5076" cy="364.82773" fx="296.76996" fy="354.04526" gradientTransform="matrix(1.05589,-.0302,.02745,.95983,-24.46195,21.54486)" gradientUnits="userSpaceOnUse" id="radialGradient10720" r="178.64662">
<stop offset="0" stop-color="#fff" stop-opacity="0"/>
<stop offset="1" stop-color="#201009" stop-opacity=".53846"/>
</radialGradient>
<radialGradient cx="356.78583" cy="790.99048" gradientTransform="matrix(1.43125,.21526,-.09249,.78845,-53.80198,73.78654)" gradientUnits="userSpaceOnUse" id="radialGradient10722" r="365.91412">
<stop offset="0" stop-color="#d0c1b6"/>
<stop offset="1" stop-color="#b29f99"/>
</radialGradient>
<radialGradient cx="400.90942" cy="684.54871" fx="399.82275" fy="674.77332" gradientTransform="matrix(1.42393,.19709,-.05446,.39343,-135.17649,284.91487)" gradientUnits="userSpaceOnUse" id="radialGradient10716" r="85.06886" xlink:href="#linearGradient10290"/>
<radialGradient cx="400.90942" cy="684.54871" fx="399.82275" fy="674.77332" gradientTransform="matrix(1.42393,.19709,-.05446,.39343,-241.0685,678.0625)" gradientUnits="userSpaceOnUse" id="radialGradient10724" r="85.06886" xlink:href="#linearGradient10290"/>
</defs>
<g transform="matrix(.7943,0,0,.83071,-31.4363,-244.628)">
<path d="m460.82707,341.83588c0,94.73967-79.98281,171.54135-178.64662,171.54135s-178.64662-76.80168-178.64662-171.54135 79.98282-171.54135 178.64662-171.54135 178.64662,76.80167 178.64662,171.54135z" fill="#dfc497" transform="matrix(.9995,.0317,-.0317,.9995,146.9944,116.07527)"/>
<path d="m266.37173,555.29628c-.69397-30.83685 265.92434-8.13698 274.21143,41.01603" fill="none" stroke="#c1b686" stroke-width=".36932"/>
<path d="m535.94604,583.64563c-3.92074-3.95888-9.03093-7.70599-14.21052-10.42005-35.8477-18.78383-111.02668-32.9081-183.68964-34.51075-38.59316-.8512-62.54137,2.48346-70.96771,9.88188l-3.43336,3.01453-5.06277-9.91212c-9.17167-17.95671-19.44732-52.03619-15.68996-52.03619 .42199,0 1.36553-1.35159 2.09675-3.00353 2.51861-5.68994 13.28412-10.04479 31.64727-12.80192 14.77787-2.21882 55.51959-3.01724 77.8671-1.52597 85.97177,5.73696 162.76577,24.3321 198.95957,48.17669 11.50237,7.57779 21.59439,19.62846 21.59439,25.7854 0,4.32992-20.5378,32.25201-30.08698,40.90466l-2.90174,2.6293-6.1224-6.18193z" fill="#b4956f"/>
<path d="m271.95512,565.87239c-.69397-30.83685 258.81906-2.04675 260.00089,32.89573" fill="none" stroke="#3d3f3d" stroke-width=".36932"/>
<path d="m530.28523,593.51395c-8.86327-13.36738-57.12204-27.27436-124.23183-35.80054-37.53598-4.76887-85.19291-6.57809-107.59399-4.08464-11.26491,1.2539-21.86559,4.32951-24.33773,7.06119-2.44546,2.7022-2.65803,2.64423-5.47575-1.49337-2.28261-3.35182-2.32132-3.66665-.74643-6.07023 4.00705-6.11553 16.70753-9.27691 42.52459-10.58512 41.89163-2.12276 103.35373,3.54462 148.91878,13.73171 40.67465,9.09372 67.61967,20.44577 76.65879,32.29667 2.31184,3.03098 2.54692,3.87214 1.45113,5.19248-3.01709,3.63537-4.6296,3.57954-7.16756-.24815z" fill="#b39c76"/>
<path d="m404.53084,637.17211c-27.83783-2.02124-57.37697-11.71244-82.4718-27.05736-9.69716-5.92959-9.08721-7.78263 3.4405-10.45218 6.09924-1.29969 12.1309-1.49414 32.84709-1.05895 35.34204.74246 67.73703,4.8466 97.95113,12.40949 14.23668,3.56358 28.66152,9.8183 29.20284,12.66257 .21732,1.14185-2.32062,2.40204-9.63246,4.78289-23.0866,7.51737-47.21732,10.46483-71.3373,8.71354z" fill="url(#radialGradient10716)"/>
<path d="m575.05716,544.67369c0-5.50996-14.11884-20.38435-26.11202-27.50936-35.13076-20.87081-103.21235-37.40759-182.47821-44.32334-21.50109-1.87591-76.06945-1.55777-89.32331.52078-17.72007,2.77896-27.87387,6.74247-32.05322,12.5119l-2.88007,3.97582-.80403-2.88463c-1.63342-5.86025-.83994-38.83347 1.18081-49.06884 2.18471-11.06587 3.73922-13.61941 11.63507-19.11255 24.77576-17.23651 83.56117-22.72141 153.35377-14.30849 96.52316,11.63507 170.4659,44.57357 182.12158,81.1278 3.54885,11.12981 3.65289,11.78589 2.66969,16.83503-2.10144,10.79186-8.19595,28.01698-13.88509,39.24397-2.62684,5.1838-3.42497,5.88102-3.42497,2.99191z" fill="#f3dbb9"/>
<path d="m574.75309,542.7009c-.69315-3.46578-12.13864-16.14284-19.44233-21.5344-9.35261-6.90405-30.67667-16.82588-48.76864-22.69146-27.61092-8.95171-61.73389-16.28541-99.58237-21.40223-35.43341-4.79031-41.81412-5.17478-85.15447-5.13091-38.46624.0389-42.35824.20416-51.4146,2.18268-12.12332,2.64856-21.32228,6.68567-25.13897,11.03263l-2.9087,3.31282-.61661-3.08306c-.33914-1.69568-.61661-9.21051-.61661-16.69962 0-11.54924.30391-14.21229 2.00175-17.54033 6.28191-12.31356 27.3486-17.86249 72.09599-18.98996 85.67282-2.15865 194.78754,21.49207 242.08647,52.47247 16.7819,10.99201 30.07045,28.06755 28.64808,36.81225-.56824,3.49348-8.16351,21.73282-9.68263,23.25195-.55418.55418-1.15625-.24233-1.50636-1.99283z" fill="#dcbd90"/>
<path d="m590.46853,487.29543c-3.7777-12.16981-11.43646-21.78248-26.04186-32.68569-34.51015-25.76247-96.56955-44.4396-174.10636-52.39828-17.18406-1.76384-68.43779-1.76396-82.21804-.00018-29.40679,3.76388-52.22041,11.94469-60.39214,21.65624-3.23078,3.83956-3.19321,3.28036.56057-8.34347 23.73591-73.49986 96.73422-122.77319 176.88494-119.39607 47.81643,2.01473 90.02648,20.6454 122.59191,54.1096 27.40183,28.1581 42.76829,60.47488 47.67787,100.27001 1.57705,12.78304.15328,44.23053-2.00253,44.23053-.35422,0-1.68368-3.34921-2.95436-7.44269z" fill="url(#linearGradient10718)"/>
<path d="m460.82707,341.83588c0,94.73967-79.98281,171.54135-178.64662,171.54135s-178.64662-76.80168-178.64662-171.54135 79.98282-171.54135 178.64662-171.54135 178.64662,76.80167 178.64662,171.54135z" fill="url(#radialGradient10720)" transform="matrix(.9995,.0317,-.0317,.9995,147.65056,115.41908)"/>
<g transform="translate(33.49624,-285.22556)">
<path d="m234.00159,643.39779c-128.93532.16469-221.49486,27.59103-227.6009,74.45154-8.49535,65.19724 153.52686,143.28234 361.8909,174.42621s384.18101,3.56202 392.67636-61.63522-153.52687-143.31885-361.89091-174.46272c-58.60239-8.75921-114.62248-12.84425-165.07545-12.77981zm52.22958,62.84017c32.84552-.0335 69.30838,2.09386 107.45927,6.6455 135.64765,16.18365 241.14322,56.78448 235.61263,90.66366s-119.97723,48.20621-255.62487,32.02256-241.14323-56.74796-235.61263-90.62714c3.9751-24.35067 64.22705-38.619 148.1656-38.70458z" fill="url(#radialGradient10722)"/>
<path d="m253.93199,669.48985c-111.76746.12588-192.00262,25.83269-197.29563,61.6496-7.36419,49.83222 133.08461,109.51503 313.70479,133.31924s333.02695,2.72256 340.39113-47.10966-133.08462-115.473-313.70479-139.2772c-50.79943-6.69493-99.3604-8.63124-143.0955-8.58198zm.39639,3.144c28.47211-.0256 111.21103,6.17347 144.28209,9.65243 117.58604,12.36965 315.6881,85.45829 302.53993,136.54685-13.36735,51.94023-222.02595,52.5068-339.43264,38.53696-155.14243-18.45988-301.76135-80.82604-296.54698-126.6997 3.63539-31.98246 116.39556-57.97113 189.1576-58.03654z"/>
<path d="m656.72931,770.68927c0,58.02104-153.60336,105.05639-343.0827,105.05639s-343.08271-47.03535-343.08271-105.05639 153.60336-105.05639 343.08271-105.05639 343.0827,47.03535 343.0827,105.05639z" fill="none" stroke="#000200" stroke-width="1.15199" transform="matrix(1.0744,.16604,-.16707,1.03711,173.88925,-77.71674)"/>
</g>
<g transform="translate(105.56391,-392.81955)">
<path d="m455.01766,385.22618c-24.95639,91.65884-122.5694,146.5365-218.02475,122.57269-83.18605-20.88363-139.07872-95.70558-133.01415-178.06231l178.20169,12.09932z" fill="#dfc497" transform="matrix(.9995,.0317,-.0317,.9995,41.10239,509.2229)"/>
<path d="m160.47972,948.44391c-.69397-30.83685 265.92434-8.13698 274.21143,41.01603" fill="none" stroke="#c1b686" stroke-width=".36932"/>
<path d="m430.05403,976.79326c-3.92074-3.95888-9.03093-7.70599-14.21052-10.42005-35.8477-18.78383-111.02668-32.9081-183.68964-34.51075-38.59316-.8512-62.54137,2.48346-70.96771,9.88188l-3.43336,3.01453-5.06277-9.91212c-9.17167-17.95671-19.44732-52.03619-15.68996-52.03619 .42199,0 1.36553-1.35159 2.09675-3.00353 2.51861-5.68994 13.28412-10.04479 31.64727-12.80192 14.77787-2.21882 55.51959-3.01724 77.8671-1.52597 85.97177,5.73696 162.76577,24.3321 198.95957,48.17669 11.50237,7.57779 21.59439,19.62846 21.59439,25.7854 0,4.32992-20.5378,32.25201-30.08698,40.90466l-2.90174,2.6293-6.1224-6.18193z" fill="#b4956f"/>
<path d="m424.39322,986.66158c-8.86327-13.36738-57.12204-27.27436-124.23183-35.80054-37.53598-4.76887-85.19291-6.57809-107.59399-4.08464-11.26491,1.2539-21.86559,4.32951-24.33773,7.06119-2.44546,2.7022-2.65803,2.64423-5.47575-1.49337-2.28261-3.35182-2.32132-3.66665-.74643-6.07023 4.00705-6.11553 16.70753-9.27691 42.52459-10.58512 41.89163-2.12276 103.35373,3.54462 148.91878,13.73171 40.67465,9.09372 67.61967,20.44577 76.65879,32.29667 2.31184,3.03098 2.54692,3.87214 1.45113,5.19248-3.01709,3.63537-4.6296,3.57954-7.16756-.24815z" fill="#b39c76"/>
<path d="m298.63883,1030.3197c-27.83783-2.0212-57.37697-11.7124-82.4718-27.0573-9.69716-5.92961-9.08721-7.78265 3.4405-10.4522 6.09924-1.29969 12.1309-1.49414 32.84709-1.05895 35.34204.74246 67.73703,4.8466 97.95113,12.40945 14.23668,3.5636 28.66152,9.8183 29.20284,12.6626 .21732,1.1419-2.32062,2.402-9.63246,4.7829-23.0866,7.5174-47.21732,10.4648-71.3373,8.7135z" fill="url(#radialGradient10724)"/>
<path d="m468.86108,935.84853c-.69315-3.46578-12.13864-16.14284-19.44233-21.5344-9.35261-6.90405-30.67667-16.82588-48.76864-22.69146-27.61092-8.95171-61.73389-16.28541-99.58237-21.40223-35.43341-4.79031-41.81412-5.17478-85.15447-5.13091-38.46624.0389-42.35824.20416-51.4146,2.18268-12.12332,2.64856-21.32228,6.68567-25.13897,11.03263l-2.9087,3.31282-.61661-3.08306c-.33914-1.69568-.61661-9.21051-.61661-16.69962 0-11.54924-2.05078-19.88616 1.66898-19.53695 21.25658,1.99556-4.5375.63911 40.08313,4.18864 87.70289,6.97669 219.34544,37.37776 274.4321,52.92056 19.73384,5.56795 30.73599,8.76687 29.31362,17.51157-.56824,3.49348-8.82905,19.40343-10.34817,20.92256-.55418.55418-1.15625-.24233-1.50636-1.99283z" fill="#dcbd90"/>
<path d="m454.96705,385.41163c-25.06305,91.632-122.73987,146.40487-218.16727,122.33865-83.05334-20.94556-138.83769-95.66749-132.82789-177.92008l178.20856,12.00568z" fill="url(#radialGradient10720)" transform="matrix(.9995,.0317,-.0317,.9995,41.28794,509.03732)"/>
</g>
</g>
</svg>
